<mxfile host="app.diagrams.net" modified="2023-12-04T01:54:35.918Z" agent="Mozilla/5.0 (Windows NT 10.0; Win64; x64) AppleWebKit/537.36 (KHTML, like Gecko) Chrome/119.0.0.0 Safari/537.36 Edg/119.0.0.0" etag="pixSMYJ8Ttl3Ke7XkT1l" version="22.1.5" type="device">
  <diagram id="C5RBs43oDa-KdzZeNtuy" name="Page-1">
    <mxGraphModel dx="906" dy="576" grid="1" gridSize="10" guides="1" tooltips="1" connect="1" arrows="1" fold="1" page="1" pageScale="1" pageWidth="827" pageHeight="1169" math="0" shadow="0">
      <root>
        <mxCell id="WIyWlLk6GJQsqaUBKTNV-0" />
        <mxCell id="WIyWlLk6GJQsqaUBKTNV-1" parent="WIyWlLk6GJQsqaUBKTNV-0" />
        <mxCell id="BYmPyesHK4nE7WRtKSxw-1" value="RPC Server" style="rounded=0;whiteSpace=wrap;html=1;" vertex="1" parent="WIyWlLk6GJQsqaUBKTNV-1">
          <mxGeometry x="80" y="60" width="120" height="60" as="geometry" />
        </mxCell>
        <mxCell id="BYmPyesHK4nE7WRtKSxw-2" value="" style="endArrow=none;dashed=1;html=1;dashPattern=1 3;strokeWidth=2;rounded=0;entryX=0;entryY=0.5;entryDx=0;entryDy=0;exitX=1;exitY=0.5;exitDx=0;exitDy=0;" edge="1" parent="WIyWlLk6GJQsqaUBKTNV-1" source="BYmPyesHK4nE7WRtKSxw-1" target="BYmPyesHK4nE7WRtKSxw-3">
          <mxGeometry width="50" height="50" relative="1" as="geometry">
            <mxPoint x="290" y="120" as="sourcePoint" />
            <mxPoint x="340" y="70" as="targetPoint" />
          </mxGeometry>
        </mxCell>
        <mxCell id="BYmPyesHK4nE7WRtKSxw-3" value="Start Client" style="rounded=0;whiteSpace=wrap;html=1;" vertex="1" parent="WIyWlLk6GJQsqaUBKTNV-1">
          <mxGeometry x="294" y="60" width="120" height="60" as="geometry" />
        </mxCell>
        <mxCell id="BYmPyesHK4nE7WRtKSxw-23" style="edgeStyle=orthogonalEdgeStyle;rounded=0;orthogonalLoop=1;jettySize=auto;html=1;exitX=0;exitY=0.5;exitDx=0;exitDy=0;entryX=1;entryY=0.5;entryDx=0;entryDy=0;" edge="1" parent="WIyWlLk6GJQsqaUBKTNV-1" source="BYmPyesHK4nE7WRtKSxw-4" target="BYmPyesHK4nE7WRtKSxw-3">
          <mxGeometry relative="1" as="geometry" />
        </mxCell>
        <mxCell id="BYmPyesHK4nE7WRtKSxw-25" style="edgeStyle=orthogonalEdgeStyle;rounded=0;orthogonalLoop=1;jettySize=auto;html=1;exitX=0.5;exitY=1;exitDx=0;exitDy=0;entryX=0.5;entryY=0;entryDx=0;entryDy=0;" edge="1" parent="WIyWlLk6GJQsqaUBKTNV-1" source="BYmPyesHK4nE7WRtKSxw-4" target="BYmPyesHK4nE7WRtKSxw-6">
          <mxGeometry relative="1" as="geometry" />
        </mxCell>
        <mxCell id="BYmPyesHK4nE7WRtKSxw-4" value="Start GUI" style="rounded=0;whiteSpace=wrap;html=1;" vertex="1" parent="WIyWlLk6GJQsqaUBKTNV-1">
          <mxGeometry x="500" y="60" width="120" height="60" as="geometry" />
        </mxCell>
        <mxCell id="BYmPyesHK4nE7WRtKSxw-5" value="connect" style="text;html=1;strokeColor=none;fillColor=none;align=center;verticalAlign=middle;whiteSpace=wrap;rounded=0;" vertex="1" parent="WIyWlLk6GJQsqaUBKTNV-1">
          <mxGeometry x="210" y="60" width="60" height="30" as="geometry" />
        </mxCell>
        <mxCell id="BYmPyesHK4nE7WRtKSxw-11" value="Database" style="rounded=0;whiteSpace=wrap;html=1;" vertex="1" parent="WIyWlLk6GJQsqaUBKTNV-1">
          <mxGeometry x="80" y="160" width="120" height="60" as="geometry" />
        </mxCell>
        <mxCell id="BYmPyesHK4nE7WRtKSxw-12" value="" style="endArrow=none;html=1;rounded=0;entryX=0.5;entryY=1;entryDx=0;entryDy=0;exitX=0.5;exitY=0;exitDx=0;exitDy=0;" edge="1" parent="WIyWlLk6GJQsqaUBKTNV-1" source="BYmPyesHK4nE7WRtKSxw-11" target="BYmPyesHK4nE7WRtKSxw-1">
          <mxGeometry width="50" height="50" relative="1" as="geometry">
            <mxPoint x="390" y="320" as="sourcePoint" />
            <mxPoint x="440" y="270" as="targetPoint" />
          </mxGeometry>
        </mxCell>
        <mxCell id="BYmPyesHK4nE7WRtKSxw-35" style="edgeStyle=orthogonalEdgeStyle;rounded=0;orthogonalLoop=1;jettySize=auto;html=1;exitX=0.25;exitY=1;exitDx=0;exitDy=0;" edge="1" parent="WIyWlLk6GJQsqaUBKTNV-1" source="BYmPyesHK4nE7WRtKSxw-15" target="BYmPyesHK4nE7WRtKSxw-29">
          <mxGeometry relative="1" as="geometry" />
        </mxCell>
        <mxCell id="BYmPyesHK4nE7WRtKSxw-15" value="" style="group;movable=1;resizable=1;rotatable=1;deletable=1;editable=1;locked=0;connectable=1;" vertex="1" connectable="0" parent="WIyWlLk6GJQsqaUBKTNV-1">
          <mxGeometry x="490" y="160" width="286" height="170" as="geometry" />
        </mxCell>
        <mxCell id="BYmPyesHK4nE7WRtKSxw-19" style="edgeStyle=orthogonalEdgeStyle;rounded=0;orthogonalLoop=1;jettySize=auto;html=1;exitX=0.75;exitY=1;exitDx=0;exitDy=0;entryX=0;entryY=0.75;entryDx=0;entryDy=0;" edge="1" parent="BYmPyesHK4nE7WRtKSxw-15" source="BYmPyesHK4nE7WRtKSxw-6" target="BYmPyesHK4nE7WRtKSxw-7">
          <mxGeometry relative="1" as="geometry" />
        </mxCell>
        <mxCell id="BYmPyesHK4nE7WRtKSxw-14" style="edgeStyle=orthogonalEdgeStyle;rounded=0;orthogonalLoop=1;jettySize=auto;html=1;entryX=1;entryY=0.25;entryDx=0;entryDy=0;exitX=0.5;exitY=0;exitDx=0;exitDy=0;" edge="1" parent="BYmPyesHK4nE7WRtKSxw-15" source="BYmPyesHK4nE7WRtKSxw-7" target="BYmPyesHK4nE7WRtKSxw-6">
          <mxGeometry relative="1" as="geometry" />
        </mxCell>
        <mxCell id="BYmPyesHK4nE7WRtKSxw-7" value="Register" style="rounded=0;whiteSpace=wrap;html=1;" vertex="1" parent="BYmPyesHK4nE7WRtKSxw-15">
          <mxGeometry x="166" y="40" width="120" height="60" as="geometry" />
        </mxCell>
        <mxCell id="BYmPyesHK4nE7WRtKSxw-21" value="Main Window" style="rounded=0;whiteSpace=wrap;html=1;" vertex="1" parent="BYmPyesHK4nE7WRtKSxw-15">
          <mxGeometry x="10" y="110" width="120" height="60" as="geometry" />
        </mxCell>
        <mxCell id="BYmPyesHK4nE7WRtKSxw-22" style="edgeStyle=orthogonalEdgeStyle;rounded=0;orthogonalLoop=1;jettySize=auto;html=1;exitX=0.5;exitY=1;exitDx=0;exitDy=0;entryX=0.5;entryY=0;entryDx=0;entryDy=0;" edge="1" parent="BYmPyesHK4nE7WRtKSxw-15" source="BYmPyesHK4nE7WRtKSxw-6" target="BYmPyesHK4nE7WRtKSxw-21">
          <mxGeometry relative="1" as="geometry" />
        </mxCell>
        <mxCell id="BYmPyesHK4nE7WRtKSxw-6" value="Login" style="rounded=0;whiteSpace=wrap;html=1;" vertex="1" parent="BYmPyesHK4nE7WRtKSxw-15">
          <mxGeometry x="10" width="120" height="60" as="geometry" />
        </mxCell>
        <mxCell id="BYmPyesHK4nE7WRtKSxw-26" style="edgeStyle=orthogonalEdgeStyle;rounded=0;orthogonalLoop=1;jettySize=auto;html=1;exitX=0.25;exitY=1;exitDx=0;exitDy=0;entryX=0.5;entryY=1;entryDx=0;entryDy=0;" edge="1" parent="WIyWlLk6GJQsqaUBKTNV-1" source="BYmPyesHK4nE7WRtKSxw-6" target="BYmPyesHK4nE7WRtKSxw-3">
          <mxGeometry relative="1" as="geometry">
            <mxPoint x="360" y="130" as="targetPoint" />
          </mxGeometry>
        </mxCell>
        <mxCell id="BYmPyesHK4nE7WRtKSxw-27" value="initialize instance" style="text;html=1;strokeColor=none;fillColor=none;align=center;verticalAlign=middle;whiteSpace=wrap;rounded=0;" vertex="1" parent="WIyWlLk6GJQsqaUBKTNV-1">
          <mxGeometry x="400" y="210" width="60" height="30" as="geometry" />
        </mxCell>
        <mxCell id="BYmPyesHK4nE7WRtKSxw-28" value="Send File" style="rounded=0;whiteSpace=wrap;html=1;" vertex="1" parent="WIyWlLk6GJQsqaUBKTNV-1">
          <mxGeometry x="250" y="370" width="120" height="60" as="geometry" />
        </mxCell>
        <mxCell id="BYmPyesHK4nE7WRtKSxw-29" value="Add Friend" style="rounded=0;whiteSpace=wrap;html=1;" vertex="1" parent="WIyWlLk6GJQsqaUBKTNV-1">
          <mxGeometry x="400" y="370" width="120" height="60" as="geometry" />
        </mxCell>
        <mxCell id="BYmPyesHK4nE7WRtKSxw-30" value="Voice Call" style="rounded=0;whiteSpace=wrap;html=1;" vertex="1" parent="WIyWlLk6GJQsqaUBKTNV-1">
          <mxGeometry x="550" y="370" width="120" height="60" as="geometry" />
        </mxCell>
        <mxCell id="BYmPyesHK4nE7WRtKSxw-31" value="Send Message" style="rounded=0;whiteSpace=wrap;html=1;" vertex="1" parent="WIyWlLk6GJQsqaUBKTNV-1">
          <mxGeometry x="100" y="370" width="120" height="60" as="geometry" />
        </mxCell>
        <mxCell id="BYmPyesHK4nE7WRtKSxw-32" value="Record Voice" style="rounded=0;whiteSpace=wrap;html=1;" vertex="1" parent="WIyWlLk6GJQsqaUBKTNV-1">
          <mxGeometry x="700" y="370" width="120" height="60" as="geometry" />
        </mxCell>
        <mxCell id="BYmPyesHK4nE7WRtKSxw-33" style="edgeStyle=orthogonalEdgeStyle;rounded=0;orthogonalLoop=1;jettySize=auto;html=1;exitX=0;exitY=0.75;exitDx=0;exitDy=0;" edge="1" parent="WIyWlLk6GJQsqaUBKTNV-1" source="BYmPyesHK4nE7WRtKSxw-21" target="BYmPyesHK4nE7WRtKSxw-31">
          <mxGeometry relative="1" as="geometry" />
        </mxCell>
        <mxCell id="BYmPyesHK4nE7WRtKSxw-34" style="edgeStyle=orthogonalEdgeStyle;rounded=0;orthogonalLoop=1;jettySize=auto;html=1;exitX=0.25;exitY=1;exitDx=0;exitDy=0;entryX=0.5;entryY=0;entryDx=0;entryDy=0;" edge="1" parent="WIyWlLk6GJQsqaUBKTNV-1" source="BYmPyesHK4nE7WRtKSxw-21" target="BYmPyesHK4nE7WRtKSxw-28">
          <mxGeometry relative="1" as="geometry">
            <mxPoint x="530" y="340" as="sourcePoint" />
            <mxPoint x="280" y="350" as="targetPoint" />
            <Array as="points">
              <mxPoint x="530" y="340" />
              <mxPoint x="311" y="340" />
            </Array>
          </mxGeometry>
        </mxCell>
        <mxCell id="BYmPyesHK4nE7WRtKSxw-36" style="edgeStyle=orthogonalEdgeStyle;rounded=0;orthogonalLoop=1;jettySize=auto;html=1;exitX=0.75;exitY=1;exitDx=0;exitDy=0;entryX=0.5;entryY=0;entryDx=0;entryDy=0;" edge="1" parent="WIyWlLk6GJQsqaUBKTNV-1" source="BYmPyesHK4nE7WRtKSxw-21" target="BYmPyesHK4nE7WRtKSxw-30">
          <mxGeometry relative="1" as="geometry" />
        </mxCell>
        <mxCell id="BYmPyesHK4nE7WRtKSxw-37" style="edgeStyle=orthogonalEdgeStyle;rounded=0;orthogonalLoop=1;jettySize=auto;html=1;exitX=1;exitY=0.75;exitDx=0;exitDy=0;entryX=0.5;entryY=0;entryDx=0;entryDy=0;" edge="1" parent="WIyWlLk6GJQsqaUBKTNV-1" source="BYmPyesHK4nE7WRtKSxw-21" target="BYmPyesHK4nE7WRtKSxw-32">
          <mxGeometry relative="1" as="geometry" />
        </mxCell>
      </root>
    </mxGraphModel>
  </diagram>
</mxfile>
